# xmcd
#
# Track frame offsets:
#	182
#	23370
#	43712
#	59562
#	83000
#	104067
#	128330
#	146972
#
# Disc length: 2291 seconds
#
# Revision: 0
# Processed by: cddbd v1.4b42PL1 Copyright (c) Steve Scherf et al.
# Submitted via: EasyCDDAExtractor 4.5.0.2
#
DISCID=6708f108
DTITLE=Peps Persson - En Del Och Andra
DYEAR=1984
DGENRE=
TTITLE0=Ge Mig Din Hand
TTITLE1=Våld
TTITLE2=Varför E Sverige Så Kallt?
TTITLE3=Rockin' Chair
TTITLE4=Dig It
TTITLE5=En Del Och Andra
TTITLE6=Enighet
TTITLE7=Håll Ut
EXTD=
EXTT0=
EXTT1=
EXTT2=
EXTT3=
EXTT4=
EXTT5=
EXTT6=
EXTT7=
PLAYORDER=
